<svg width="42" height="43" viewBox="0 0 42 43" fill="none" xmlns="http://www.w3.org/2000/svg">
<g id="vuesax/outline/3d-square">
<g id="3d-square">
<path id="Vector" d="M26.25 39.8247H15.75C6.2475 39.8247 2.1875 35.7647 2.1875 26.2622V15.7622C2.1875 6.25971 6.2475 2.19971 15.75 2.19971H26.25C35.7525 2.19971 39.8125 6.25971 39.8125 15.7622V26.2622C39.8125 35.7647 35.7525 39.8247 26.25 39.8247ZM15.75 4.82471C7.6825 4.82471 4.8125 7.69471 4.8125 15.7622V26.2622C4.8125 34.3297 7.6825 37.1997 15.75 37.1997H26.25C34.3175 37.1997 37.1875 34.3297 37.1875 26.2622V15.7622C37.1875 7.69471 34.3175 4.82471 26.25 4.82471H15.75Z" fill="#FFB200"/>
<path id="Vector_2" d="M20.9996 22.9019C20.7721 22.9019 20.5446 22.8494 20.3346 22.7269L11.0596 17.3719C10.4296 17.0044 10.2196 16.1994 10.5871 15.5869C10.9546 14.9569 11.7596 14.7469 12.3721 15.1144L20.9821 20.1019L29.5396 15.1494C30.1696 14.7819 30.9746 15.0094 31.3246 15.6219C31.6746 16.2344 31.4646 17.0569 30.8521 17.4069L21.6471 22.7269C21.4546 22.8319 21.2271 22.9019 20.9996 22.9019Z" fill="#FFB200"/>
<path id="Vector_3" d="M21 32.4223C20.2825 32.4223 19.6875 31.8273 19.6875 31.1098V21.5898C19.6875 20.8723 20.2825 20.2773 21 20.2773C21.7175 20.2773 22.3125 20.8723 22.3125 21.5898V31.1098C22.3125 31.8273 21.7175 32.4223 21 32.4223Z" fill="#FFB200"/>
<path id="Vector_4" d="M20.9999 32.8246C19.9849 32.8246 18.9875 32.5971 18.1825 32.1596L12.5824 29.0446C10.9024 28.1171 9.60742 25.8946 9.60742 23.9696V18.0371C9.60742 16.1296 10.9199 13.9071 12.5824 12.9621L18.1825 9.84711C19.7925 8.95461 22.2074 8.95461 23.8174 9.84711L29.4174 12.9621C31.0974 13.8896 32.3925 16.1121 32.3925 18.0371V23.9696C32.3925 25.8771 31.0799 28.0996 29.4174 29.0446L23.8174 32.1596C23.0124 32.6146 22.0149 32.8246 20.9999 32.8246ZM20.9999 11.8246C20.4224 11.8246 19.8624 11.9296 19.4599 12.1571L13.86 15.2721C13.0025 15.7446 12.2324 17.0746 12.2324 18.0371V23.9696C12.2324 24.9496 13.0025 26.2621 13.86 26.7346L19.4599 29.8496C20.2649 30.3046 21.7349 30.3046 22.5399 29.8496L28.1399 26.7346C28.9974 26.2621 29.7675 24.9321 29.7675 23.9696V18.0371C29.7675 17.0571 28.9974 15.7446 28.1399 15.2721L22.5399 12.1571C22.1374 11.9296 21.5774 11.8246 20.9999 11.8246Z" fill="#FFB200"/>
</g>
</g>
</svg>
