<svg width="19" height="19" viewBox="0 0 19 19" fill="none" xmlns="http://www.w3.org/2000/svg">
<g clip-path="url(#clip0_3390_27160)">
<path d="M8.47776 3.72662C6.6143 1.86316 3.65469 1.27855 1.06046 2.08239C0.950841 2.08239 0.804688 2.26508 0.804688 2.55739C0.804688 2.8497 0.804688 3.65355 0.804688 3.98239C0.804688 4.2747 1.06046 4.34778 1.20661 4.31124C3.17969 3.50739 5.59123 3.87278 7.16238 5.51701L7.5643 5.91893C7.78353 6.13816 7.60084 6.54008 7.30853 6.54008H4.45853C4.16623 6.54008 3.91046 6.75931 3.91046 7.08816V8.18431C3.91046 8.47662 4.12969 8.73239 4.45853 8.73239L11.4739 8.80547C11.7662 8.80547 12.022 8.58624 12.022 8.25739L12.0585 1.27855C12.0585 0.986238 11.8393 0.730469 11.5105 0.730469H10.4143C10.122 0.730469 9.82969 0.9497 9.82969 1.24201L9.79315 4.12855C9.79315 4.42085 9.39123 4.60355 9.172 4.38431C9.20853 4.42085 8.47776 3.72662 8.47776 3.72662Z" fill="#EE3142"/>
<path d="M1.27855 10.1586H2.3747C2.66701 10.1586 2.92278 10.4144 2.92278 10.7067V15.5298C2.92278 15.8221 3.17855 16.0779 3.47085 16.0779H15.5285C15.8209 16.0779 16.0766 15.8221 16.0766 15.5298V6.17593C16.0766 5.88362 15.8209 5.62785 15.5285 5.62785H14.067C13.7747 5.62785 13.5189 5.37209 13.5189 5.07978V3.98362C13.5189 3.69132 13.7747 3.43555 14.067 3.43555H16.8074C17.6112 3.43555 18.2689 4.09324 18.2689 4.89709V16.8086C18.2689 17.6125 17.6112 18.2702 16.8074 18.2702H2.19201C1.38816 18.2702 0.730469 17.6125 0.730469 16.8086V10.7067C0.730469 10.4144 0.986238 10.1586 1.27855 10.1586Z" fill="#EE3142"/>
</g>
<defs>
<clipPath id="clip0_3390_27160">
<rect width="19" height="19" fill="white"/>
</clipPath>
</defs>
</svg>
