<svg width="21" height="20" viewBox="0 0 21 20" fill="none" xmlns="http://www.w3.org/2000/svg">
<path d="M11.2156 14.5167H9.12396C7.75729 14.5167 6.64896 13.3667 6.64896 11.95C6.64896 11.6083 6.93229 11.325 7.27396 11.325C7.61563 11.325 7.89896 11.6083 7.89896 11.95C7.89896 12.675 8.44896 13.2667 9.12396 13.2667H11.2156C11.7573 13.2667 12.2073 12.7833 12.2073 12.2C12.2073 11.475 11.949 11.3333 11.524 11.1833L8.16562 10C7.51562 9.775 6.64062 9.29167 6.64062 7.8C6.64062 6.51667 7.64896 5.48334 8.88229 5.48334H10.974C12.3406 5.48334 13.449 6.63334 13.449 8.05C13.449 8.39167 13.1656 8.675 12.824 8.675C12.4823 8.675 12.199 8.39167 12.199 8.05C12.199 7.325 11.649 6.73334 10.974 6.73334H8.88229C8.34063 6.73334 7.89062 7.21667 7.89062 7.8C7.89062 8.525 8.14896 8.66667 8.57396 8.81667L11.9323 10C12.5823 10.225 13.4573 10.7083 13.4573 12.2C13.449 13.475 12.449 14.5167 11.2156 14.5167Z" fill="#222222"/>
<path d="M10.0488 15.625C9.70716 15.625 9.42383 15.3417 9.42383 15V5C9.42383 4.65833 9.70716 4.375 10.0488 4.375C10.3905 4.375 10.6738 4.65833 10.6738 5V15C10.6738 15.3417 10.3905 15.625 10.0488 15.625Z" fill="#222222"/>
<path d="M10.0482 18.9583C5.10651 18.9583 1.08984 14.9417 1.08984 10C1.08984 5.05834 5.10651 1.04167 10.0482 1.04167C14.9898 1.04167 19.0065 5.05834 19.0065 10C19.0065 14.9417 14.9898 18.9583 10.0482 18.9583ZM10.0482 2.29167C5.79818 2.29167 2.33984 5.75001 2.33984 10C2.33984 14.25 5.79818 17.7083 10.0482 17.7083C14.2982 17.7083 17.7565 14.25 17.7565 10C17.7565 5.75001 14.2982 2.29167 10.0482 2.29167Z" fill="#222222"/>
</svg>
