<svg width="42" height="42" viewBox="0 0 42 42" fill="none" xmlns="http://www.w3.org/2000/svg">
<path fill-rule="evenodd" clip-rule="evenodd" d="M33.25 31.5C33.25 32.466 32.466 33.25 31.5 33.25C30.534 33.25 29.75 32.466 29.75 31.5C29.75 30.534 30.534 29.75 31.5 29.75C32.466 29.75 33.25 30.534 33.25 31.5ZM21 26.25H7L7.028 8.75H26.25L26.222 26.25H21ZM12.25 31.5C12.25 32.466 11.466 33.25 10.5 33.25C9.534 33.25 8.75 32.466 8.75 31.5C8.75 30.534 9.534 29.75 10.5 29.75C11.466 29.75 12.25 30.534 12.25 31.5ZM35 21.84V26.25H29.75V17.6418L35 21.84ZM37.8438 19.6332L29.75 13.1582V8.75C29.75 6.81975 28.3273 5.25 26.5773 5.25H6.671C4.92275 5.25 3.5 6.81975 3.5 8.75V26.25C3.5 27.7778 4.39775 29.0658 5.63675 29.5435C5.39175 30.149 5.25 30.807 5.25 31.5C5.25 34.3945 7.6055 36.75 10.5 36.75C13.3945 36.75 15.75 34.3945 15.75 31.5C15.75 30.8822 15.624 30.2995 15.4263 29.75H21H26.5738C26.376 30.2995 26.25 30.8822 26.25 31.5C26.25 34.3945 28.6055 36.75 31.5 36.75C34.3945 36.75 36.75 34.3945 36.75 31.5C36.75 30.8822 36.624 30.2995 36.4263 29.75H36.75C37.7178 29.75 38.5 28.9678 38.5 28V21C38.5 20.468 38.2585 19.9657 37.8438 19.6332Z" fill="#02A0FC"/>
</svg>
