<svg width="43" height="50" viewBox="0 0 43 50" fill="none" xmlns="http://www.w3.org/2000/svg">
<g id="Group 10">
<g id="vuesax/outline/box">
<g id="box">
<path id="Vector" d="M21.6869 30.9625C21.4594 30.9625 21.2319 30.91 21.0219 30.7875L5.56941 21.845C4.95691 21.4775 4.72941 20.6725 5.09691 20.0425C5.46441 19.4125 6.26941 19.2025 6.89941 19.57L21.6869 28.1275L36.3869 19.6225C37.0169 19.255 37.8219 19.4825 38.1894 20.095C38.5569 20.725 38.3294 21.53 37.7169 21.8975L22.3694 30.7875C22.1419 30.8925 21.9144 30.9625 21.6869 30.9625Z" fill="#00AC4F"/>
<path id="Vector_2" d="M21.6875 46.8173C20.97 46.8173 20.375 46.2223 20.375 45.5048V29.6323C20.375 28.9148 20.97 28.3198 21.6875 28.3198C22.405 28.3198 23 28.9148 23 29.6323V45.5048C23 46.2223 22.405 46.8173 21.6875 46.8173Z" fill="#00AC4F"/>
<path id="Vector_3" d="M21.6866 47.5C20.1466 47.5 18.6241 47.1675 17.4166 46.5025L8.07164 41.305C5.53414 39.905 3.55664 36.5275 3.55664 33.6225V23.735C3.55664 20.83 5.53414 17.47 8.07164 16.0525L17.4166 10.8725C19.8141 9.5425 23.5591 9.5425 25.9566 10.8725L35.3016 16.07C37.8391 17.47 39.8166 20.8475 39.8166 23.7525V33.64C39.8166 36.545 37.8391 39.905 35.3016 41.3225L25.9566 46.5025C24.7491 47.1675 23.2266 47.5 21.6866 47.5ZM21.6866 12.5C20.5841 12.5 19.4991 12.7275 18.6941 13.165L9.34914 18.3625C7.66914 19.29 6.18164 21.81 6.18164 23.735V33.6225C6.18164 35.5475 7.66914 38.0675 9.34914 39.0125L18.6941 44.21C20.2866 45.1025 23.0866 45.1025 24.6791 44.21L34.0241 39.0125C35.7041 38.0675 37.1916 35.565 37.1916 33.6225V23.735C37.1916 21.81 35.7041 19.29 34.0241 18.345L24.6791 13.1475C23.8741 12.7275 22.7891 12.5 21.6866 12.5Z" fill="#00AC4F"/>
<path id="Vector_4" d="M16.8537 10.2826L19.9375 7.19888V19.9755C19.9375 20.9378 20.7252 21.7255 21.6875 21.7255C22.6498 21.7255 23.4375 20.9378 23.4375 19.9755V7.2006L26.5195 10.2826C26.867 10.6301 27.3157 10.7955 27.7566 10.7955C28.1713 10.7955 28.6477 10.6463 29.0059 10.2704C29.6742 9.58883 29.6702 8.48488 28.9937 7.80842L22.9237 1.73842C22.2432 1.0579 21.1301 1.0579 20.4495 1.73842L14.3795 7.80842C13.699 8.48894 13.699 9.60211 14.3795 10.2826C15.0601 10.9632 16.1732 10.9632 16.8537 10.2826Z" fill="#00AC4F" stroke="white" stroke-width="2"/>
</g>
</g>
</g>
</svg>
