<svg width="43" height="49" viewBox="0 0 43 49" fill="none" xmlns="http://www.w3.org/2000/svg">
<g id="vuesax/outline/box">
<g id="box">
<path id="Vector" d="M21.6869 29.9625C21.4594 29.9625 21.2319 29.91 21.0219 29.7875L5.56941 20.845C4.95691 20.4775 4.72941 19.6725 5.09691 19.0425C5.46441 18.4125 6.26941 18.2025 6.89941 18.57L21.6869 27.1275L36.3869 18.6225C37.0169 18.255 37.8219 18.4825 38.1894 19.095C38.5569 19.725 38.3294 20.53 37.7169 20.8975L22.3694 29.7875C22.1419 29.8925 21.9144 29.9625 21.6869 29.9625Z" fill="#EE3142"/>
<path id="Vector_2" d="M21.6875 45.8173C20.97 45.8173 20.375 45.2223 20.375 44.5048V28.6323C20.375 27.9148 20.97 27.3198 21.6875 27.3198C22.405 27.3198 23 27.9148 23 28.6323V44.5048C23 45.2223 22.405 45.8173 21.6875 45.8173Z" fill="#EE3142"/>
<path id="Vector_3" d="M21.6866 46.5C20.1466 46.5 18.6241 46.1675 17.4166 45.5025L8.07164 40.305C5.53414 38.905 3.55664 35.5275 3.55664 32.6225V22.735C3.55664 19.83 5.53414 16.47 8.07164 15.0525L17.4166 9.8725C19.8141 8.5425 23.5591 8.5425 25.9566 9.8725L35.3016 15.07C37.8391 16.47 39.8166 19.8475 39.8166 22.7525V32.64C39.8166 35.545 37.8391 38.905 35.3016 40.3225L25.9566 45.5025C24.7491 46.1675 23.2266 46.5 21.6866 46.5ZM21.6866 11.5C20.5841 11.5 19.4991 11.7275 18.6941 12.165L9.34914 17.3625C7.66914 18.29 6.18164 20.81 6.18164 22.735V32.6225C6.18164 34.5475 7.66914 37.0675 9.34914 38.0125L18.6941 43.21C20.2866 44.1025 23.0866 44.1025 24.6791 43.21L34.0241 38.0125C35.7041 37.0675 37.1916 34.565 37.1916 32.6225V22.735C37.1916 20.81 35.7041 18.29 34.0241 17.345L24.6791 12.1475C23.8741 11.7275 22.7891 11.5 21.6866 11.5Z" fill="#EE3142"/>
<path id="Vector_4" d="M23.4377 15.782L23.4377 3.00537C23.4377 2.04309 22.65 1.25537 21.6877 1.25537C20.7255 1.25537 19.9377 2.04309 19.9377 3.00537L19.9377 15.7803L16.8557 12.6982L16.1602 13.3938L16.8557 12.6982C16.5083 12.3508 16.0595 12.1854 15.6186 12.1854C15.2039 12.1854 14.7276 12.3345 14.3694 12.7105C13.701 13.392 13.705 14.496 14.3815 15.1725L20.4515 21.2425C21.132 21.923 22.2452 21.923 22.9257 21.2425L28.9957 15.1725C29.6762 14.4919 29.6762 13.3788 28.9957 12.6982C28.3152 12.0177 27.202 12.0177 26.5215 12.6982L23.4377 15.782Z" fill="#EE3142" stroke="white" stroke-width="2"/>
</g>
</g>
</svg>
