<svg width="43" height="43" viewBox="0 0 43 43" fill="none" xmlns="http://www.w3.org/2000/svg">
<g id="Group 6">
<g id="vuesax/outline/box">
<g id="box">
<path id="Vector" d="M21.39 24.0143C21.1625 24.0143 20.935 23.9618 20.725 23.8393L5.2725 14.8968C4.6425 14.5293 4.43247 13.7243 4.79997 13.0943C5.16747 12.4643 5.95496 12.2542 6.60246 12.6217L21.39 21.1793L36.09 12.6743C36.72 12.3068 37.525 12.5343 37.8925 13.1468C38.26 13.7768 38.0325 14.5818 37.42 14.9493L22.0725 23.8393C21.845 23.9443 21.6175 24.0143 21.39 24.0143Z" fill="black"/>
<path id="Vector_2" d="M21.3906 39.8696C20.6731 39.8696 20.0781 39.2746 20.0781 38.5571V22.6846C20.0781 21.9671 20.6731 21.3721 21.3906 21.3721C22.1081 21.3721 22.7031 21.9671 22.7031 22.6846V38.5571C22.7031 39.2746 22.1081 39.8696 21.3906 39.8696Z" fill="black"/>
<path id="Vector_3" d="M21.3917 40.5517C19.8517 40.5517 18.3292 40.2192 17.1217 39.5542L7.7767 34.3568C5.2392 32.9568 3.26172 29.5793 3.26172 26.6743V16.7867C3.26172 13.8817 5.2392 10.5218 7.7767 9.1043L17.1217 3.92426C19.5192 2.59426 23.2642 2.59426 25.6617 3.92426L35.0067 9.12171C37.5442 10.5217 39.5217 13.8992 39.5217 16.8042V26.6918C39.5217 29.5968 37.5442 32.9567 35.0067 34.3742L25.6617 39.5542C24.4542 40.2192 22.9317 40.5517 21.3917 40.5517ZM21.3917 5.55174C20.2892 5.55174 19.2042 5.77925 18.3992 6.21675L9.05421 11.4142C7.37421 12.3592 5.88672 14.8617 5.88672 16.8042V26.6918C5.88672 28.6168 7.37421 31.1367 9.05421 32.0817L18.3992 37.2793C19.9917 38.1717 22.7917 38.1717 24.3842 37.2793L33.7292 32.0817C35.4092 31.1367 36.8967 28.6343 36.8967 26.6918V16.8042C36.8967 14.8792 35.4092 12.3592 33.7292 11.4142L24.3842 6.21675C23.5792 5.77925 22.4942 5.55174 21.3917 5.55174Z" fill="black"/>
<path id="Vector_4" d="M30.1407 25.2217C29.4232 25.2217 28.8282 24.6267 28.8282 23.9092V18.2743L12.8682 9.06925C12.2382 8.70175 12.0282 7.89672 12.3957 7.28422C12.7632 6.65422 13.5507 6.44418 14.1807 6.81168L30.7882 16.4018C31.1907 16.6293 31.4532 17.0667 31.4532 17.5392V23.9443C31.4532 24.6268 30.8582 25.2217 30.1407 25.2217Z" fill="black"/>
</g>
</g>
</g>
</svg>
