<svg width="42" height="42" viewBox="0 0 42 42" fill="none" xmlns="http://www.w3.org/2000/svg">
<g id="vuesax/outline/building">
<g id="building">
<path id="Vector" d="M21.8748 39.8122H7.13977C4.39227 39.8122 2.13477 37.6072 2.13477 34.8772V8.90722C2.13477 6.22972 3.13227 4.14722 4.95227 3.00972C6.78977 1.85472 9.16977 1.88972 11.6373 3.11472L19.4073 6.92972C21.5248 7.97972 23.1873 10.6222 23.1873 12.9672V38.4997C23.1873 39.2172 22.5923 39.8122 21.8748 39.8122ZM7.97977 4.81222C7.36727 4.81222 6.80727 4.95222 6.33477 5.24972C5.31977 5.87972 4.75977 7.19222 4.75977 8.90722V34.8772C4.75977 36.1547 5.82727 37.1872 7.13977 37.1872H20.5623V12.9672C20.5623 11.6197 19.4773 9.88722 18.2348 9.29222L10.4648 5.47722C9.57227 5.03972 8.73227 4.81222 7.97977 4.81222Z" fill="#FFB200"/>
<path id="Vector_2" d="M32.9175 39.8122H21.875C21.1575 39.8122 20.5625 39.2172 20.5625 38.4997V18.2347C20.5625 17.8322 20.7375 17.4647 21.0525 17.2197C21.3675 16.9747 21.7525 16.8697 22.155 16.9572L22.9775 17.1322L34.4225 19.6872C37.905 20.4572 39.655 22.5047 39.76 25.9872C39.7775 25.9872 39.7775 26.1622 39.7775 26.3547V32.9697C39.76 37.4497 37.3975 39.8122 32.9175 39.8122ZM23.1875 37.1872H32.9175C35.9975 37.1872 37.135 36.0497 37.135 32.9697V26.2147C37.0475 23.8172 36.1375 22.7497 33.845 22.2422L23.1875 19.8622V37.1872Z" fill="#FFB200"/>
<path id="Vector_3" d="M15.6975 17.0625H9.625C8.9075 17.0625 8.3125 16.4675 8.3125 15.75C8.3125 15.0325 8.9075 14.4375 9.625 14.4375H15.6975C16.415 14.4375 17.01 15.0325 17.01 15.75C17.01 16.4675 16.4325 17.0625 15.6975 17.0625Z" fill="#FFB200"/>
<path id="Vector_4" d="M15.6975 24.0625H9.625C8.9075 24.0625 8.3125 23.4675 8.3125 22.75C8.3125 22.0325 8.9075 21.4375 9.625 21.4375H15.6975C16.415 21.4375 17.01 22.0325 17.01 22.75C17.01 23.4675 16.4325 24.0625 15.6975 24.0625Z" fill="#FFB200"/>
<path id="Vector_5" d="M26.6348 31.0623C23.7473 31.0623 21.3848 28.6998 21.3848 25.8123V18.4098C21.3848 18.0073 21.5598 17.6398 21.8748 17.3773C22.1898 17.1148 22.5923 17.0273 22.9773 17.1148L30.8523 18.8823C31.4473 19.0223 31.8848 19.5473 31.8848 20.1598V25.7948C31.8848 28.6998 29.5398 31.0623 26.6348 31.0623ZM24.0098 20.0548V25.8123C24.0098 27.2648 25.1823 28.4373 26.6348 28.4373C28.0873 28.4373 29.2598 27.2648 29.2598 25.8123V21.2273L24.0098 20.0548Z" fill="#FFB200"/>
<path id="Vector_6" d="M34.5098 31.0621C31.6223 31.0621 29.2598 28.6996 29.2598 25.8121V20.1771C29.2598 19.7746 29.4348 19.4071 29.7498 19.1621C30.0648 18.9171 30.4673 18.8121 30.8523 18.8996L34.4048 19.6871C37.8873 20.4571 39.6373 22.5046 39.7423 25.9871C39.7423 26.0221 39.7423 26.0571 39.7423 26.0921C39.6023 28.8746 37.3098 31.0621 34.5098 31.0621ZM31.8848 21.8046V25.8121C31.8848 27.2646 33.0573 28.4371 34.5098 28.4371C35.8923 28.4371 37.0298 27.3696 37.1173 26.0046C37.0298 23.7996 36.1198 22.7496 33.8448 22.2421L31.8848 21.8046Z" fill="#FFB200"/>
</g>
</g>
</svg>
