<svg width="42" height="42" viewBox="0 0 42 42" fill="none" xmlns="http://www.w3.org/2000/svg">
<path d="M21 39.8109C19.8975 39.8109 18.865 39.391 18.095 38.6035L15.435 35.9435C15.225 35.7335 14.665 35.506 14.385 35.506H10.605C8.33 35.506 6.49249 33.6683 6.49249 31.3933V27.6134C6.49249 27.3334 6.26499 26.7735 6.05499 26.5635L3.395 23.9034C2.625 23.1334 2.1875 22.1009 2.1875 20.9984C2.1875 19.8959 2.6075 18.8633 3.395 18.0933L6.05499 15.4333C6.26499 15.2233 6.49249 14.6633 6.49249 14.3833V10.6035C6.49249 8.32849 8.33 6.49082 10.605 6.49082H14.385C14.665 6.49082 15.225 6.26332 15.435 6.05332L18.095 3.39328C19.635 1.85328 22.365 1.85328 23.905 3.39328L26.565 6.05332C26.775 6.26332 27.335 6.49082 27.615 6.49082H31.395C33.67 6.49082 35.5075 8.32849 35.5075 10.6035V14.3833C35.5075 14.6633 35.735 15.2233 35.945 15.4333L38.605 18.0933C39.375 18.8633 39.8125 19.8959 39.8125 20.9984C39.8125 22.1009 39.3925 23.1334 38.605 23.9034L35.945 26.5635C35.735 26.7735 35.5075 27.3334 35.5075 27.6134V31.3933C35.5075 33.6683 33.67 35.506 31.395 35.506H27.615C27.335 35.506 26.775 35.7335 26.565 35.9435L23.905 38.6035C23.135 39.391 22.1025 39.8109 21 39.8109ZM7.90998 24.7084C8.60998 25.4084 9.11749 26.6334 9.11749 27.6134V31.3933C9.11749 32.2158 9.7825 32.881 10.605 32.881H14.385C15.365 32.881 16.59 33.3883 17.29 34.0883L19.95 36.7484C20.51 37.3084 21.49 37.3084 22.05 36.7484L24.71 34.0883C25.41 33.3883 26.635 32.881 27.615 32.881H31.395C32.2175 32.881 32.8825 32.2158 32.8825 31.3933V27.6134C32.8825 26.6334 33.39 25.4084 34.09 24.7084L36.75 22.0483C37.03 21.7683 37.1875 21.4009 37.1875 20.9984C37.1875 20.5959 37.03 20.2284 36.75 19.9484L34.09 17.2884C33.39 16.5884 32.8825 15.3633 32.8825 14.3833V10.6035C32.8825 9.78099 32.2175 9.11582 31.395 9.11582H27.615C26.635 9.11582 25.41 8.60842 24.71 7.90842L22.05 5.24838C21.49 4.68838 20.51 4.68838 19.95 5.24838L17.29 7.90842C16.59 8.60842 15.365 9.11582 14.385 9.11582H10.605C9.7825 9.11582 9.11749 9.78099 9.11749 10.6035V14.3833C9.11749 15.3633 8.60998 16.5884 7.90998 17.2884L5.25 19.9484C4.97 20.2284 4.8125 20.5959 4.8125 20.9984C4.8125 21.4009 4.97 21.7683 5.25 22.0483L7.90998 24.7084Z" fill="#2157C0"/>
<path d="M26.2499 28C25.2699 28 24.4824 27.2125 24.4824 26.25C24.4824 25.2875 25.2699 24.5 26.2324 24.5C27.1949 24.5 27.9824 25.2875 27.9824 26.25C27.9824 27.2125 27.2124 28 26.2499 28Z" fill="#2157C0"/>
<path d="M15.7675 17.5C14.7875 17.5 14 16.7125 14 15.75C14 14.7875 14.7875 14 15.75 14C16.7125 14 17.5 14.7875 17.5 15.75C17.5 16.7125 16.73 17.5 15.7675 17.5Z" fill="#2157C0"/>
<path d="M15.7495 27.5621C15.417 27.5621 15.0845 27.4396 14.822 27.1771C14.3145 26.6696 14.3145 25.8295 14.822 25.322L25.322 14.822C25.8295 14.3145 26.6695 14.3145 27.177 14.822C27.6845 15.3295 27.6845 16.1696 27.177 16.6771L16.677 27.1771C16.4145 27.4396 16.082 27.5621 15.7495 27.5621Z" fill="#2157C0"/>
</svg>
