<svg width="42" height="42" viewBox="0 0 42 42" fill="none" xmlns="http://www.w3.org/2000/svg">
<g id="Icons / Cube">
<path id="Color" fill-rule="evenodd" clip-rule="evenodd" d="M32.7076 27.9349L22.7501 32.5619V20.8089L33.2501 15.9317V27.1929C33.2501 27.4974 33.0436 27.7809 32.7076 27.9349ZM9.28039 27.9367C8.94964 27.7827 8.74664 27.4992 8.75014 27.1807V15.9317L19.2501 20.8089V32.5654L9.28039 27.9367ZM20.4874 8.8617C20.6466 8.78645 20.8234 8.7497 21.0001 8.7497C21.1751 8.7497 21.3519 8.78645 21.5111 8.8617L30.8369 13.1912L21.0001 17.7622L11.1616 13.1912L20.4874 8.8617ZM36.1481 12.7029C36.1429 12.6889 36.1446 12.6732 36.1376 12.6592C36.1324 12.6452 36.1184 12.6364 36.1096 12.6224C36.0291 12.4894 35.9311 12.3722 35.8384 12.2497C35.7841 12.1902 35.7404 12.1237 35.6809 12.0729C35.2696 11.5899 34.7849 11.1647 34.1829 10.8864L22.9829 5.6837C22.9811 5.6837 22.9794 5.6837 22.9794 5.68195C21.7211 5.10095 20.2774 5.1027 19.0156 5.6837L7.82089 10.8847C7.21889 11.1629 6.73239 11.5864 6.32114 12.0694C6.25639 12.1237 6.20914 12.1972 6.15139 12.2619C6.06039 12.3792 5.96764 12.4929 5.89064 12.6189C5.8819 12.6347 5.8679 12.6452 5.86089 12.6592C5.8539 12.6749 5.85565 12.6907 5.84865 12.7064C5.4794 13.3399 5.25014 14.0522 5.25014 14.8012V27.1684C5.23614 28.8309 6.23714 30.3779 7.80164 31.1094L18.9999 36.3104C19.6334 36.6062 20.3124 36.7532 20.9931 36.7532C21.6721 36.7532 22.3511 36.6062 22.9829 36.3122L34.1776 31.1112C35.7386 30.3902 36.7484 28.8537 36.7501 27.1947V14.7994C36.7484 14.0504 36.5191 13.3382 36.1481 12.7029Z" fill="#4339F2"/>
</g>
</svg>
