<svg width="42" height="42" viewBox="0 0 42 42" fill="none" xmlns="http://www.w3.org/2000/svg">
<g id="vuesax/outline/dollar-circle">
<g id="dollar-circle">
<path id="Vector" d="M23.4503 30.4851H19.0578C16.1878 30.4851 13.8603 28.0701 13.8603 25.0951C13.8603 24.3776 14.4553 23.7826 15.1728 23.7826C15.8903 23.7826 16.4853 24.3776 16.4853 25.0951C16.4853 26.6176 17.6403 27.8601 19.0578 27.8601H23.4503C24.5878 27.8601 25.5328 26.8451 25.5328 25.6201C25.5328 24.0976 24.9903 23.8001 24.0978 23.4851L17.0453 21.0001C15.6803 20.5276 13.8428 19.5126 13.8428 16.3801C13.8428 13.6851 15.9603 11.5151 18.5503 11.5151H22.9428C25.8128 11.5151 28.1403 13.9301 28.1403 16.9051C28.1403 17.6226 27.5453 18.2176 26.8278 18.2176C26.1103 18.2176 25.5153 17.6226 25.5153 16.9051C25.5153 15.3826 24.3603 14.1401 22.9428 14.1401H18.5503C17.4128 14.1401 16.4678 15.1551 16.4678 16.3801C16.4678 17.9026 17.0103 18.2001 17.9028 18.5151L24.9553 21.0001C26.3203 21.4726 28.1578 22.4876 28.1578 25.6201C28.1403 28.2976 26.0403 30.4851 23.4503 30.4851Z" fill="#00AC4F"/>
<path id="Vector_2" d="M21 32.8125C20.2825 32.8125 19.6875 32.2175 19.6875 31.5V10.5C19.6875 9.7825 20.2825 9.1875 21 9.1875C21.7175 9.1875 22.3125 9.7825 22.3125 10.5V31.5C22.3125 32.2175 21.7175 32.8125 21 32.8125Z" fill="#00AC4F"/>
<path id="Vector_3" d="M21 39.8125C10.6225 39.8125 2.1875 31.3775 2.1875 21C2.1875 10.6225 10.6225 2.1875 21 2.1875C31.3775 2.1875 39.8125 10.6225 39.8125 21C39.8125 31.3775 31.3775 39.8125 21 39.8125ZM21 4.8125C12.075 4.8125 4.8125 12.075 4.8125 21C4.8125 29.925 12.075 37.1875 21 37.1875C29.925 37.1875 37.1875 29.925 37.1875 21C37.1875 12.075 29.925 4.8125 21 4.8125Z" fill="#00AC4F"/>
</g>
</g>
</svg>
