<svg width="14" height="18" viewBox="0 0 14 18" fill="none" xmlns="http://www.w3.org/2000/svg">
<path fill-rule="evenodd" clip-rule="evenodd" d="M2.08453 12.2274L4.56536 12.0016L9.23203 7.33077L6.98536 5.08327L2.30453 9.7641L2.08453 12.2274ZM8.10203 3.96743L10.3479 6.21327L11.9704 4.58827L9.72536 2.34327L8.10203 3.96743ZM0.576215 13.7374C0.401215 13.5624 0.313715 13.3191 0.335382 13.0724L0.651215 9.59743C0.686215 9.2166 0.854549 8.85743 1.12622 8.58577L8.62288 1.0891C9.20788 0.501601 10.2687 0.530767 10.8862 1.1466L13.1679 3.42827L13.1687 3.4291C13.8062 4.06743 13.832 5.08243 13.2254 5.69077L5.72788 13.1883C5.45705 13.4591 5.09788 13.6274 4.71622 13.6624L1.24122 13.9783C1.21622 13.9799 1.19122 13.9808 1.16538 13.9808C0.946215 13.9808 0.733715 13.8941 0.576215 13.7374V13.7374ZM13.6654 16.4808C13.6654 16.9391 13.2904 17.3141 12.832 17.3141H1.16536C0.707865 17.3141 0.332031 16.9391 0.332031 16.4808C0.332031 16.0233 0.707865 15.6474 1.16536 15.6474H12.832C13.2904 15.6474 13.6654 16.0233 13.6654 16.4808V16.4808Z" fill="#EE3142"/>
</svg>
