<svg width="18" height="12" viewBox="0 0 18 12" fill="none" xmlns="http://www.w3.org/2000/svg">
<path fill-rule="evenodd" clip-rule="evenodd" d="M8.99939 7.25018C8.31022 7.25018 7.74939 6.68935 7.74939 6.00018C7.74939 5.31101 8.31022 4.75018 8.99939 4.75018C9.68856 4.75018 10.2494 5.31101 10.2494 6.00018C10.2494 6.68935 9.68856 7.25018 8.99939 7.25018M8.99939 3.08351C7.39106 3.08351 6.08272 4.39185 6.08272 6.00018C6.08272 7.60851 7.39106 8.91685 8.99939 8.91685C10.6077 8.91685 11.9161 7.60851 11.9161 6.00018C11.9161 4.39185 10.6077 3.08351 8.99939 3.08351M9.18247 10.1648C5.59414 10.2482 3.25331 7.17901 2.47664 5.99651C3.33164 4.65901 5.48497 1.92068 8.81664 1.83568C12.3908 1.74485 14.745 4.82151 15.5216 6.00401C14.6675 7.34151 12.5133 10.0798 9.18247 10.1648M17.2225 5.58568C16.6908 4.65901 13.7541 0.0140132 8.77414 0.169847C4.16747 0.286513 1.48831 4.34485 0.776641 5.58568C0.629141 5.84235 0.629141 6.15818 0.776641 6.41485C1.30081 7.32901 4.13414 11.8332 9.01997 11.8332C9.08831 11.8332 9.15664 11.8323 9.22497 11.8307C13.8308 11.7132 16.5108 7.65568 17.2225 6.41485C17.3691 6.15818 17.3691 5.84235 17.2225 5.58568" fill="#EE3142"/>
</svg>
