<svg width="14" height="14" viewBox="0 0 14 14" fill="none" xmlns="http://www.w3.org/2000/svg">
<g opacity="0.18">
<path fill-rule="evenodd" clip-rule="evenodd" d="M10.3497 5.89881L8.1039 3.65298L9.72723 2.02881L11.9722 4.27381L10.3497 5.89881ZM4.56723 11.6871L2.0864 11.913L2.3064 9.44965L6.98723 4.76881L9.2339 7.01548L4.56723 11.6871ZM13.1706 3.11465L13.1697 3.11381L10.8881 0.832147C10.2706 0.216314 9.20973 0.187148 8.62473 0.774647L1.12806 8.27131C0.856398 8.54215 0.688064 8.90215 0.653064 9.28298L0.337231 12.758C0.315564 13.0038 0.403064 13.2471 0.578064 13.4221C0.735564 13.5796 0.948064 13.6663 1.16723 13.6663C1.19306 13.6663 1.21806 13.6655 1.24306 13.663L4.71806 13.3471C5.09973 13.3121 5.4589 13.1446 5.72973 12.8738L13.2272 5.37631C13.8339 4.76798 13.8081 3.75298 13.1706 3.11465Z" fill="black"/>
</g>
</svg>
