<svg width="20" height="20" viewBox="0 0 20 20" fill="none" xmlns="http://www.w3.org/2000/svg">
<g opacity="0.18">
<path fill-rule="evenodd" clip-rule="evenodd" d="M4.59611 13.3333L5.57945 12.3483C5.89445 12.0333 6.06778 11.615 6.06778 11.17V7.2725C6.06778 6.14167 6.55945 5.06083 7.41778 4.30917C8.28278 3.55083 9.38445 3.2175 10.5319 3.36833C12.4711 3.62583 13.9336 5.37916 13.9336 7.4475V11.17C13.9336 11.615 14.1069 12.0333 14.4211 12.3475L15.4053 13.3333H4.59611ZM11.6669 15.2842C11.6669 16.0333 10.9036 16.6667 10.0003 16.6667C9.09695 16.6667 8.33361 16.0333 8.33361 15.2842V15H11.6669V15.2842ZM17.1011 12.6733L15.6003 11.17V7.4475C15.6003 4.54667 13.5153 2.0825 10.7503 1.71667C9.14861 1.50333 7.53195 1.9925 6.31945 3.05583C5.09945 4.12417 4.40111 5.66083 4.40111 7.2725L4.40028 11.17L2.89945 12.6733C2.50861 13.065 2.39278 13.6475 2.60445 14.1583C2.81695 14.67 3.31111 15 3.86445 15H6.66695V15.2842C6.66695 16.9658 8.16195 18.3333 10.0003 18.3333C11.8386 18.3333 13.3336 16.9658 13.3336 15.2842V15H16.1361C16.6894 15 17.1828 14.67 17.3944 14.1592C17.6069 13.6475 17.4919 13.0642 17.1011 12.6733Z" fill="black"/>
</g>
</svg>
