<svg width="18" height="16" viewBox="0 0 18 16" fill="none" xmlns="http://www.w3.org/2000/svg">
<path fill-rule="evenodd" clip-rule="evenodd" d="M17.2225 8.41458C16.8766 9.01708 16.0633 10.2821 14.795 11.4388L13.6191 10.2629C14.5025 9.47042 15.1416 8.59875 15.5216 8.00375C14.745 6.82125 12.3925 3.74458 8.81664 3.83542C8.31664 3.84792 7.84747 3.92625 7.40081 4.04458L6.08414 2.72792C6.89414 2.40792 7.78664 2.19458 8.77414 2.16958C13.7533 2.01375 16.6908 6.65875 17.2225 7.58542C17.3691 7.84208 17.3691 8.15792 17.2225 8.41458ZM10.5975 11.9554L11.9141 13.2721C11.105 13.5921 10.2116 13.8054 9.22497 13.8304C9.15664 13.8321 9.08831 13.8329 9.01997 13.8329C4.13414 13.8329 1.30081 9.32875 0.776641 8.41458C0.629141 8.15792 0.629141 7.84208 0.776641 7.58542C1.12164 6.98292 1.93497 5.71792 3.20331 4.56042L4.37914 5.73708C3.49581 6.52958 2.85747 7.40125 2.47664 7.99625C3.25331 9.17875 5.59497 12.2479 9.18247 12.1646C9.68247 12.1521 10.1516 12.0738 10.5975 11.9554ZM8.99914 9.24958C8.30997 9.24958 7.74914 8.68958 7.74914 7.99958C7.74914 7.97875 7.75831 7.95958 7.75914 7.93792L9.06164 9.24042C9.03997 9.24125 9.02081 9.24958 8.99914 9.24958ZM2.92164 0.74375C2.59664 0.41875 2.06914 0.41875 1.74331 0.74375C1.41831 1.06958 1.41831 1.59708 1.74331 1.92208L6.43581 6.61458C6.20497 7.03792 6.08247 7.50875 6.08247 7.99958C6.08247 9.60792 7.39164 10.9163 8.99914 10.9163C9.49081 10.9163 9.96164 10.7937 10.385 10.5637L15.0766 15.2554C15.24 15.4187 15.4525 15.4996 15.6658 15.4996C15.8791 15.4996 16.0925 15.4187 16.255 15.2554C16.5808 14.9304 16.5808 14.4029 16.255 14.0771L2.92164 0.74375Z" fill="#d1d1d1"/>
</svg>
