<svg width="24" height="24" viewBox="0 0 24 24" fill="none" xmlns="http://www.w3.org/2000/svg">
<path fill-rule="evenodd" clip-rule="evenodd" d="M6.66667 9.33333C7.77067 9.33333 8.66667 8.43733 8.66667 7.33333C8.66667 6.22933 7.77067 5.33333 6.66667 5.33333C5.56267 5.33333 4.66667 6.22933 4.66667 7.33333C4.66667 8.43733 5.56267 9.33333 6.66667 9.33333ZM20 21.3333H4.748L14.088 13.54C14.416 13.2613 15.0107 13.2627 15.332 13.5387L21.3333 18.6587V20C21.3333 20.736 20.736 21.3333 20 21.3333ZM4 2.66667H20C20.736 2.66667 21.3333 3.264 21.3333 4V15.152L17.0627 11.5093C15.7427 10.3867 13.6773 10.3867 12.3693 11.5013L2.66667 19.5973V4C2.66667 3.264 3.264 2.66667 4 2.66667ZM20 0H4C1.79467 0 0 1.79467 0 4V20C0 22.2053 1.79467 24 4 24H20C22.2053 24 24 22.2053 24 20V4C24 1.79467 22.2053 0 20 0Z" fill="black"/>
</svg>
