<svg width="14" height="18" viewBox="0 0 14 18" fill="none" xmlns="http://www.w3.org/2000/svg">
<path fill-rule="evenodd" clip-rule="evenodd" d="M7.04948 8.16626C6.36031 8.16626 5.79948 7.60542 5.79948 6.91625C5.79948 6.22709 6.36031 5.66625 7.04948 5.66625C7.73865 5.66625 8.29948 6.22709 8.29948 6.91625C8.29948 7.60542 7.73865 8.16626 7.04948 8.16626ZM7.04948 3.99959C5.44115 3.99959 4.13281 5.30792 4.13281 6.91625C4.13281 8.52459 5.44115 9.83292 7.04948 9.83292C8.65781 9.83292 9.96615 8.52459 9.96615 6.91625C9.96615 5.30792 8.65781 3.99959 7.04948 3.99959ZM7.04948 15.3717C5.65365 14.0517 2.04948 10.3458 2.04948 7.26834C2.04948 4.5475 4.29198 2.33334 7.04948 2.33334C9.80698 2.33334 12.0495 4.5475 12.0495 7.26834C12.0495 10.3458 8.44531 14.0517 7.04948 15.3717ZM7.04948 0.666672C3.37365 0.666672 0.382812 3.62751 0.382812 7.26834C0.382812 11.8308 6.25698 16.9175 6.50698 17.1317C6.66365 17.2658 6.85615 17.3333 7.04948 17.3333C7.24281 17.3333 7.43531 17.2658 7.59198 17.1317C7.84198 16.9175 13.7161 11.8308 13.7161 7.26834C13.7161 3.62751 10.7253 0.666672 7.04948 0.666672Z" fill="black"/>
</svg>
