<svg width="16" height="12" viewBox="0 0 16 12" fill="none" xmlns="http://www.w3.org/2000/svg">
<path fill-rule="evenodd" clip-rule="evenodd" d="M13.25 10.5H2.75C2.33675 10.5 2 10.164 2 9.75V2.4375L7.55 6.6C7.6835 6.7005 7.84175 6.75 8 6.75C8.15825 6.75 8.3165 6.7005 8.45 6.6L14 2.4375V9.75C14 10.164 13.6632 10.5 13.25 10.5ZM12.7498 1.5L8 5.0625L3.25025 1.5H12.7498ZM13.25 0H2.75C1.5095 0 0.5 1.0095 0.5 2.25V9.75C0.5 10.9905 1.5095 12 2.75 12H13.25C14.4905 12 15.5 10.9905 15.5 9.75V2.25C15.5 1.0095 14.4905 0 13.25 0Z" fill="#EE3142"/>
</svg>
