<svg width="42" height="42" viewBox="0 0 42 42" fill="none" xmlns="http://www.w3.org/2000/svg">
<path fill-rule="evenodd" clip-rule="evenodd" d="M19.25 14C19.25 13.034 20.034 12.25 21 12.25C21.966 12.25 22.75 13.034 22.75 14C22.75 14.966 21.966 15.75 21 15.75C20.034 15.75 19.25 14.966 19.25 14ZM19.25 19.25C19.25 18.284 20.034 17.5 21 17.5C21.966 17.5 22.75 18.284 22.75 19.25V28C22.75 28.966 21.966 29.75 21 29.75C20.034 29.75 19.25 28.966 19.25 28V19.25ZM21 35C13.2808 35 7 28.7192 7 21C7 13.2808 13.2808 7 21 7C28.7192 7 35 13.2808 35 21C35 28.7192 28.7192 35 21 35ZM21 3.5C11.3348 3.5 3.5 11.3348 3.5 21C3.5 30.6652 11.3348 38.5 21 38.5C30.6635 38.5 38.5 30.6652 38.5 21C38.5 11.3348 30.6635 3.5 21 3.5Z" fill="#FFB200"/>
</svg>
