<svg width="42" height="42" viewBox="0 0 42 42" fill="none" xmlns="http://www.w3.org/2000/svg">
<g id="Icons / Person / Persones">
<path id="Color" fill-rule="evenodd" clip-rule="evenodd" d="M38.5 33.25C38.5 34.216 37.7178 35 36.75 35C35.7822 35 35 34.216 35 33.25C35 30.3555 32.6445 28 29.75 28C28.5548 28 27.419 28.4095 26.502 29.1357C27.454 30.8787 28 32.8773 28 35C28 35.966 27.2178 36.75 26.25 36.75C25.2822 36.75 24.5 35.966 24.5 35C24.5 30.1753 20.5747 26.25 15.75 26.25C10.9253 26.25 7 30.1753 7 35C7 35.966 6.21775 36.75 5.25 36.75C4.28225 36.75 3.5 35.966 3.5 35C3.5 28.245 8.99675 22.75 15.75 22.75C19.1222 22.75 22.1777 24.1203 24.395 26.3305C25.9157 25.1545 27.7882 24.5 29.75 24.5C34.5747 24.5 38.5 28.4253 38.5 33.25ZM29.75 15.75C30.716 15.75 31.5 16.5358 31.5 17.5C31.5 18.4642 30.716 19.25 29.75 19.25C28.784 19.25 28 18.4642 28 17.5C28 16.5358 28.784 15.75 29.75 15.75ZM29.75 22.75C32.6445 22.75 35 20.3945 35 17.5C35 14.6055 32.6445 12.25 29.75 12.25C26.8555 12.25 24.5 14.6055 24.5 17.5C24.5 20.3945 26.8555 22.75 29.75 22.75ZM15.75 8.75C17.6803 8.75 19.25 10.3197 19.25 12.25C19.25 14.1803 17.6803 15.75 15.75 15.75C13.8197 15.75 12.25 14.1803 12.25 12.25C12.25 10.3197 13.8197 8.75 15.75 8.75ZM15.75 19.25C19.6105 19.25 22.75 16.1105 22.75 12.25C22.75 8.3895 19.6105 5.25 15.75 5.25C11.8895 5.25 8.75 8.3895 8.75 12.25C8.75 16.1105 11.8895 19.25 15.75 19.25Z" fill="#02A0FC"/>
</g>
</svg>
