<svg width="20" height="20" viewBox="0 0 20 20" fill="none" xmlns="http://www.w3.org/2000/svg">
<path fill-rule="evenodd" clip-rule="evenodd" d="M15.834 17.4075C15.834 17.9186 15.4349 18.3334 14.9411 18.3334C14.4474 18.3334 14.0483 17.9186 14.0483 17.4075C14.0483 14.8547 12.0456 12.7779 9.58398 12.7779C7.12238 12.7779 5.1197 14.8547 5.1197 17.4075C5.1197 17.9186 4.72059 18.3334 4.22684 18.3334C3.73309 18.3334 3.33398 17.9186 3.33398 17.4075C3.33398 13.8334 6.13845 10.926 9.58398 10.926C13.0295 10.926 15.834 13.8334 15.834 17.4075ZM9.58398 3.5186C10.5688 3.5186 11.3697 4.34916 11.3697 5.37045C11.3697 6.39175 10.5688 7.2223 9.58398 7.2223C8.59916 7.2223 7.79827 6.39175 7.79827 5.37045C7.79827 4.34916 8.59916 3.5186 9.58398 3.5186ZM9.58398 9.07416C11.5536 9.07416 13.1554 7.41304 13.1554 5.37045C13.1554 3.32786 11.5536 1.66675 9.58398 1.66675C7.61434 1.66675 6.01256 3.32786 6.01256 5.37045C6.01256 7.41304 7.61434 9.07416 9.58398 9.07416Z" fill="black"/>
</svg>
