<svg width="18" height="19" viewBox="0 0 18 19" fill="none" xmlns="http://www.w3.org/2000/svg">
<path fill-rule="evenodd" clip-rule="evenodd" d="M4.95 3.5C3.8745 3.5 3 4.3745 3 5.45C3 10.991 7.50825 15.5 13.05 15.5C14.1248 15.5 15 14.6255 15 13.55C15 13.4668 14.9948 13.385 14.9843 13.304L11.5192 12.509C11.4503 12.641 11.3745 12.7843 11.3055 12.9178C10.9635 13.5703 10.716 14.0443 10.0845 13.79C7.605 12.92 5.58075 10.895 4.6995 8.3855C4.43175 7.79675 4.94175 7.52975 5.58825 7.19225C5.7195 7.12325 5.86125 7.049 5.991 6.9815L5.196 3.51575C5.11275 3.50525 5.03175 3.5 4.95 3.5ZM13.05 17C6.681 17 1.5 11.819 1.5 5.45C1.5 3.54725 3.04725 2 4.95 2C5.145 2 5.33775 2.0165 5.5245 2.04875C5.70675 2.078 5.88975 2.1245 6.06825 2.186C6.312 2.27075 6.49575 2.4755 6.5535 2.7275L7.58025 7.2005C7.63725 7.4465 7.566 7.7045 7.3905 7.8875C7.2885 7.994 7.28625 7.99625 6.35625 8.483C7.10925 10.1135 8.418 11.4178 10.0155 12.1453C10.503 11.2145 10.506 11.2115 10.6125 11.1095C10.7955 10.934 11.055 10.8657 11.2995 10.9198L15.7733 11.9465C16.0245 12.0043 16.2292 12.1873 16.3132 12.431C16.3747 12.608 16.4213 12.791 16.452 12.9792C16.4835 13.1645 16.5 13.3565 16.5 13.55C16.5 15.4527 14.952 17 13.05 17Z" fill="#EE3142"/>
</svg>
