<svg width="42" height="42" viewBox="0 0 42 42" fill="none" xmlns="http://www.w3.org/2000/svg">
<path fill-rule="evenodd" clip-rule="evenodd" d="M21 28C20.034 28 19.25 27.216 19.25 26.25C19.25 25.284 20.034 24.5 21 24.5C21.966 24.5 22.75 25.284 22.75 26.25C22.75 27.216 21.966 28 21 28ZM21 21C18.1055 21 15.75 23.3555 15.75 26.25C15.75 29.1445 18.1055 31.5 21 31.5C23.8945 31.5 26.25 29.1445 26.25 26.25C26.25 23.3555 23.8945 21 21 21ZM31.5 33.25C31.5 34.216 30.716 35 29.75 35H12.25C11.284 35 10.5 34.216 10.5 33.25V19.25C10.5 18.284 11.284 17.5 12.25 17.5H14H17.5H24.5H28H29.75C30.716 17.5 31.5 18.284 31.5 19.25V33.25ZM17.5 10.6943C17.5 8.65725 19.0697 7 21 7C22.9303 7 24.5 8.65725 24.5 10.6943V14H17.5V10.6943ZM29.75 14H28V10.6943C28 6.72875 24.8605 3.5 21 3.5C17.1395 3.5 14 6.72875 14 10.6943V14H12.25C9.3555 14 7 16.3555 7 19.25V33.25C7 36.1445 9.3555 38.5 12.25 38.5H29.75C32.6445 38.5 35 36.1445 35 33.25V19.25C35 16.3555 32.6445 14 29.75 14Z" fill="#EE3142"/>
</svg>
