<svg width="16" height="16" viewBox="0 0 16 16" fill="none" xmlns="http://www.w3.org/2000/svg">
<path fill-rule="evenodd" clip-rule="evenodd" d="M8.83333 13.8333H12.5833V10.5H8.83333V13.8333ZM3.41667 13.8333H7.16667V10.5H3.41667V13.8333ZM2.16667 5.66667C2.16667 5.5975 2.1775 5.54167 2.18833 5.5H4.78583H7.16667V8.83333H2.18833C2.1775 8.79167 2.16667 8.73583 2.16667 8.66667V5.66667ZM3.83333 3C3.83333 2.54 4.26083 2.16667 4.78583 2.16667C5.83333 2.16667 6.475 3.075 6.82833 3.83333H4.78583C4.26083 3.83333 3.83333 3.46 3.83333 3ZM11.2142 2.16667C11.7392 2.16667 12.1667 2.54 12.1667 3C12.1667 3.46 11.7392 3.83333 11.2142 3.83333H9.16667C9.51667 3.075 10.1567 2.16667 11.2142 2.16667ZM13.8333 5.66667V8.66667C13.8333 8.73583 13.8225 8.79167 13.8117 8.83333H8.83333V5.5H11.2142H13.8117C13.8225 5.54167 13.8333 5.5975 13.8333 5.66667ZM14 3.83333H13.6725C13.7708 3.57167 13.8333 3.29417 13.8333 3C13.8333 1.62167 12.6583 0.5 11.2142 0.5C9.6125 0.5 8.6075 1.49917 8 2.4975C7.3925 1.49917 6.3875 0.5 4.78583 0.5C3.34167 0.5 2.16667 1.62167 2.16667 3C2.16667 3.29417 2.23 3.57167 2.3275 3.83333H2C1.15917 3.83333 0.5 4.63917 0.5 5.66667V8.66667C0.5 9.58917 1.03333 10.3275 1.75 10.47V14.1108C1.75 14.8767 2.4275 15.5 3.26 15.5H12.7392C13.5725 15.5 14.25 14.8767 14.25 14.1108V10.47C14.9667 10.3275 15.5 9.58917 15.5 8.66667V5.66667C15.5 4.63917 14.8408 3.83333 14 3.83333Z" fill="#EE3142"/>
</svg>
