<svg width="18" height="18" viewBox="0 0 18 18" fill="none" xmlns="http://www.w3.org/2000/svg">
<path fill-rule="evenodd" clip-rule="evenodd" d="M7.33268 12.0827C7.33268 12.541 6.95768 12.916 6.49935 12.916C6.04102 12.916 5.66602 12.541 5.66602 12.0827V8.74935C5.66602 8.29102 6.04102 7.91602 6.49935 7.91602C6.95768 7.91602 7.33268 8.29102 7.33268 8.74935V12.0827ZM12.3327 12.0827C12.3327 12.541 11.9577 12.916 11.4993 12.916C11.041 12.916 10.666 12.541 10.666 12.0827V8.74935C10.666 8.29102 11.041 7.91602 11.4993 7.91602C11.9577 7.91602 12.3327 8.29102 12.3327 8.74935V12.0827ZM13.9993 14.5827C13.9993 15.0418 13.626 15.416 13.166 15.416H4.83268C4.37268 15.416 3.99935 15.0418 3.99935 14.5827V5.41602H13.9993V14.5827ZM7.33268 2.35602C7.33268 2.22685 7.51102 2.08268 7.74935 2.08268H10.2493C10.4877 2.08268 10.666 2.22685 10.666 2.35602V3.74935H7.33268V2.35602ZM16.4993 3.74935H15.666H12.3327V2.35602C12.3327 1.28602 11.3985 0.416016 10.2493 0.416016H7.74935C6.60018 0.416016 5.66602 1.28602 5.66602 2.35602V3.74935H2.33268H1.49935C1.04102 3.74935 0.666016 4.12435 0.666016 4.58268C0.666016 5.04102 1.04102 5.41602 1.49935 5.41602H2.33268V14.5827C2.33268 15.961 3.45435 17.0827 4.83268 17.0827H13.166C14.5443 17.0827 15.666 15.961 15.666 14.5827V5.41602H16.4993C16.9577 5.41602 17.3327 5.04102 17.3327 4.58268C17.3327 4.12435 16.9577 3.74935 16.4993 3.74935Z" fill="#EE3142"/>
</svg>
