<svg width="13" height="13" viewBox="0 0 13 13" fill="none" xmlns="http://www.w3.org/2000/svg">
<path id="Vector" d="M7.65002 6.50014L12.7623 1.38783C13.0799 1.07048 13.0799 0.555567 12.7623 0.238216C12.4447 -0.0794054 11.9303 -0.0794054 11.6127 0.238216L6.50041 5.35052L1.38783 0.238216C1.07021 -0.0794054 0.555838 -0.0794054 0.238216 0.238216C-0.0794054 0.555567 -0.0794054 1.07048 0.238216 1.38783L5.35079 6.50014L0.238216 11.6124C-0.0794054 11.9298 -0.0794054 12.4447 0.238216 12.7621C0.397027 12.9206 0.605162 13 0.813025 13C1.02089 13 1.22902 12.9206 1.38783 12.7618L6.50041 7.64948L11.6127 12.7618C11.7715 12.9206 11.9797 13 12.1875 13C12.3954 13 12.6035 12.9206 12.7623 12.7618C13.0799 12.4444 13.0799 11.9295 12.7623 11.6122L7.65002 6.50014Z" fill="#EE3142"/>
</svg>
