<svg width="42" height="42" viewBox="0 0 42 42" fill="none" xmlns="http://www.w3.org/2000/svg">
<g id="bag-2 1">
<path id="Vector" d="M28.875 15.102C28.1575 15.102 27.5625 14.507 27.5625 13.7895V11.3745C27.5625 9.53705 26.775 7.75205 25.41 6.50955C24.0275 5.24955 22.2425 4.67205 20.3525 4.84705C17.2025 5.14455 14.4375 8.36455 14.4375 11.7245V13.422C14.4375 14.1395 13.8425 14.7345 13.125 14.7345C12.4075 14.7345 11.8125 14.1395 11.8125 13.422V11.707C11.8125 6.99955 15.61 2.65955 20.1075 2.22205C22.7325 1.97705 25.2525 2.79955 27.1775 4.56705C29.085 6.29955 30.1875 8.78455 30.1875 11.3745V13.7895C30.1875 14.507 29.5925 15.102 28.875 15.102Z" fill="#DA001A"/>
<path id="Vector_2" d="M26.2506 39.8125H15.7507C7.66566 39.8125 6.16066 36.05 5.77566 32.3925L4.46316 21.91C4.27066 20.02 4.20066 17.3075 6.03816 15.2775C7.61316 13.5275 10.2207 12.6875 14.0007 12.6875H28.0006C31.7981 12.6875 34.4056 13.545 35.9631 15.2775C37.7831 17.3075 37.7306 20.02 37.5381 21.875L36.2256 32.3925C35.8406 36.05 34.3356 39.8125 26.2506 39.8125ZM14.0007 15.3125C11.0432 15.3125 9.01316 15.89 7.98066 17.045C7.12316 17.99 6.84316 19.4425 7.07066 21.6125L8.38316 32.095C8.68066 34.895 9.45066 37.205 15.7507 37.205H26.2506C32.5506 37.205 33.3206 34.9125 33.6181 32.13L34.9306 21.6125C35.1581 19.4775 34.8781 18.025 34.0206 17.0625C32.9881 15.89 30.9581 15.3125 28.0006 15.3125H14.0007Z" fill="#DA001A"/>
<path id="Vector_3" d="M26.9863 23.0127C26.0063 23.0127 25.2188 22.2252 25.2188 21.2627C25.2188 20.3002 26.0062 19.5127 26.9688 19.5127C27.9313 19.5127 28.7188 20.3002 28.7188 21.2627C28.7188 22.2252 27.9488 23.0127 26.9863 23.0127Z" fill="#DA001A"/>
<path id="Vector_4" d="M14.7362 23.0127C13.7563 23.0127 12.9688 22.2252 12.9688 21.2627C12.9688 20.3002 13.7562 19.5127 14.7187 19.5127C15.6812 19.5127 16.4687 20.3002 16.4687 21.2627C16.4687 22.2252 15.6987 23.0127 14.7362 23.0127Z" fill="#DA001A"/>
</g>
</svg>
