<svg width="16" height="18" viewBox="0 0 16 18" fill="none" xmlns="http://www.w3.org/2000/svg">
<path fill-rule="evenodd" clip-rule="evenodd" d="M13.8822 14.8333C13.8822 15.2933 13.508 15.6667 13.0488 15.6667H3.04883C2.58966 15.6667 2.21549 15.2933 2.21549 14.8333V5.66666C2.21549 5.20666 2.58966 4.83332 3.04883 4.83332V5.66666C3.04883 6.58582 3.79633 7.33332 4.71549 7.33332H11.3822C12.3013 7.33332 13.0488 6.58582 13.0488 5.66666V4.83332C13.508 4.83332 13.8822 5.20666 13.8822 5.66666V14.8333ZM4.71549 2.33332L11.3822 2.33582V3.16666V5.66666H4.71549V3.16666V2.33332ZM13.0488 3.16666V2.33332C13.0488 1.41416 12.3013 0.666656 11.3822 0.666656H4.71549C3.79633 0.666656 3.04883 1.41416 3.04883 2.33332V3.16666C1.67049 3.16666 0.548828 4.28832 0.548828 5.66666V14.8333C0.548828 16.2117 1.67049 17.3333 3.04883 17.3333H13.0488C14.4272 17.3333 15.5488 16.2117 15.5488 14.8333V5.66666C15.5488 4.28832 14.4272 3.16666 13.0488 3.16666Z" fill="#EE3142"/>
</svg>
