<svg width="42" height="42" viewBox="0 0 42 42" fill="none" xmlns="http://www.w3.org/2000/svg">
<path fill-rule="evenodd" clip-rule="evenodd" d="M20.9992 28.0875C21.2775 28.0875 21.5557 28.154 21.8095 28.2852L28.4052 31.7327L27.1505 24.458C27.0507 23.8875 27.2415 23.3065 27.658 22.9023L32.971 17.7642L25.6157 16.6932C25.047 16.611 24.5552 16.2558 24.2997 15.7413L20.9992 9.10175L17.6987 15.7413C17.4432 16.2558 16.9515 16.611 16.3827 16.6932L9.02746 17.7642L14.3405 22.9023C14.757 23.3065 14.9477 23.8875 14.848 24.458L13.5932 31.7327L20.189 28.2852C20.4427 28.154 20.721 28.0875 20.9992 28.0875ZM30.7327 36.6712C30.4545 36.6712 30.1762 36.6065 29.9225 36.4735L20.9992 31.8115L12.076 36.4735C11.4845 36.7815 10.7705 36.7272 10.2367 36.3352C9.69771 35.9432 9.42996 35.28 9.54196 34.6237L11.243 24.7747L4.03296 17.801C3.55171 17.3372 3.38021 16.6407 3.58496 16.0055C3.78796 15.3702 4.33746 14.9082 4.99721 14.812L14.974 13.363L19.4312 4.3925C20.0227 3.2025 21.9757 3.2025 22.5672 4.3925L27.0245 13.363L37.0012 14.812C37.661 14.9082 38.2105 15.3702 38.4135 16.0055C38.6182 16.6407 38.4467 17.3372 37.9655 17.801L30.7555 24.7747L32.4565 34.6237C32.5685 35.28 32.3007 35.9432 31.7617 36.3352C31.459 36.5592 31.0967 36.6712 30.7327 36.6712Z" fill="#FFB200"/>
</svg>
