<svg width="20" height="20" viewBox="0 0 20 20" fill="none" xmlns="http://www.w3.org/2000/svg">
<g opacity="0.18">
<path fill-rule="evenodd" clip-rule="evenodd" d="M15.0013 15.8334C15.0013 16.2926 14.628 16.6667 14.168 16.6667H5.83464C5.37464 16.6667 5.0013 16.2926 5.0013 15.8334V6.66675H15.0013V15.8334ZM8.33464 3.60675C8.33464 3.47758 8.51297 3.33341 8.7513 3.33341H11.2513C11.4896 3.33341 11.668 3.47758 11.668 3.60675V5.00008H8.33464V3.60675ZM17.5013 5.00008H16.668H13.3346V3.60675C13.3346 2.53675 12.4005 1.66675 11.2513 1.66675H8.7513C7.60214 1.66675 6.66797 2.53675 6.66797 3.60675V5.00008H3.33464H2.5013C2.04297 5.00008 1.66797 5.37508 1.66797 5.83342C1.66797 6.29175 2.04297 6.66675 2.5013 6.66675H3.33464V15.8334C3.33464 17.2117 4.4563 18.3334 5.83464 18.3334H14.168C15.5463 18.3334 16.668 17.2117 16.668 15.8334V6.66675H17.5013C17.9596 6.66675 18.3346 6.29175 18.3346 5.83342C18.3346 5.37508 17.9596 5.00008 17.5013 5.00008Z" fill="black"/>
</g>
</svg>
