<svg width="28" height="28" viewBox="0 0 28 28" fill="none" xmlns="http://www.w3.org/2000/svg">
<path fill-rule="evenodd" clip-rule="evenodd" d="M22.166 12.8327H15.166V5.83268C15.166 5.18752 14.6433 4.66602 13.9993 4.66602C13.3553 4.66602 12.8327 5.18752 12.8327 5.83268V12.8327H5.83268C5.18868 12.8327 4.66602 13.3542 4.66602 13.9993C4.66602 14.6445 5.18868 15.166 5.83268 15.166H12.8327V22.166C12.8327 22.8112 13.3553 23.3327 13.9993 23.3327C14.6433 23.3327 15.166 22.8112 15.166 22.166V15.166H22.166C22.81 15.166 23.3327 14.6445 23.3327 13.9993C23.3327 13.3542 22.81 12.8327 22.166 12.8327Z" fill="#ffffff"/>
</svg>
