<svg width="53" height="51" viewBox="0 0 53 51" fill="none" xmlns="http://www.w3.org/2000/svg">
<path id="Vector" fill-rule="evenodd" clip-rule="evenodd" d="M26.5 0C41.135 0 53 11.4172 53 25.5C53 39.5828 41.135 51 26.5 51C11.865 51 0 39.5828 0 25.5C0 11.4617 11.865 0 26.5 0ZM35.7335 22.1681C32.0401 20.9242 22.7143 25.7666 27.331 30.4756C31.2552 34.5183 41.412 33.0078 40.2578 28.0767C39.6577 25.4556 36.98 22.5679 35.7335 22.1681ZM34.7178 19.3693C37.4878 18.8362 39.4268 19.1028 40.7195 21.635C41.8275 23.8118 42.797 27.4103 42.3815 30.0314C40.9504 35.9843 31.8554 38.1612 27.5157 34.1185C26.0845 32.7857 23.453 29.2761 23.9608 27.0549C24.7918 23.2787 31.6246 19.9469 34.7178 19.3693ZM14.4503 16.5261C15.7892 19.547 18.2822 24.3449 18.4207 24.5671C18.5131 24.7892 18.7439 25.1446 19.3441 24.7892C19.9443 24.3894 29.8702 16.7038 32.3632 14.216C32.8711 13.7274 33.2404 13.1054 33.7483 12.7944C35.2718 11.6838 37.4878 12.75 35.2718 14.4382C34.3946 15.1045 33.7021 15.3711 32.8249 16.0819C29.4085 18.7918 21.5139 25.0113 19.9443 26.2997C19.7596 26.4774 19.6672 26.6995 19.9443 27.277C19.9904 27.3659 22.4835 31.7639 24.1916 34.696C24.838 35.8066 25.6228 36.4286 24.4225 37.4503C24.1916 37.6281 24.0531 37.7613 23.8223 37.8946C23.5915 38.0723 23.3606 38.2056 23.1298 38.3389C21.1908 39.4495 21.0061 37.8057 20.1751 36.0732C19.0209 33.6298 16.9895 29.4094 16.9434 29.3206C16.6664 28.6986 16.2047 29.0096 16.0662 29.0984C15.7892 29.2761 12.5113 31.9861 12.0497 32.3415C11.1263 33.23 10.2953 32.3859 10.48 31.6751C10.5723 31.4085 10.8955 31.2308 11.2648 30.9643C12.2343 30.2535 14.4503 28.4765 15.0967 28.0322C15.2814 27.899 15.3737 27.8545 15.5122 27.6768C15.8354 27.277 15.743 26.9216 15.6507 26.6106C15.5122 26.2552 12.7883 20.7465 11.8188 18.6141C11.2186 17.2814 9.74129 15.7265 11.034 14.7047C11.7265 14.1716 12.3267 14.1272 12.7422 14.216C13.7117 14.4382 14.0348 15.5488 14.4503 16.5261Z" fill="#EE3142"/>
</svg>
